<svg viewBox="0 0 24 24" fill="none" xmlns="http://www.w3.org/2000/svg">
    <path fill-rule="evenodd" clip-rule="evenodd"
        d="M20.4001 2.12111C20.6635 2.12111 20.9216 2.12 21.1384 2.13771C21.3669 2.15641 21.6367 2.20068 21.908 2.33888C22.2372 2.50666 22.5127 2.76198 22.7048 3.07521L22.782 3.2129L22.8689 3.41603C22.9404 3.61686 22.9691 3.81117 22.9831 3.98244C23.0009 4.19925 22.9998 4.45733 22.9998 4.72072V5.39064C22.9998 5.6067 23.0077 5.89379 22.9343 6.17287C22.8761 6.39421 22.7802 6.60403 22.6511 6.79298C22.4882 7.03123 22.2656 7.21396 22.1023 7.35548L15.7068 12.8985C15.5982 12.9926 15.5435 13.0399 15.5056 13.0762C15.5048 13.077 15.5035 13.0774 15.5027 13.0781C15.5026 13.0797 15.5028 13.0813 15.5027 13.083C15.5001 13.1354 15.4998 13.2078 15.4998 13.3516V18.5791C15.4998 18.6948 15.5147 19.0124 15.405 19.3067C15.3214 19.5307 15.1855 19.7318 15.0085 19.8926C14.7761 20.1038 14.4754 20.208 14.3679 20.251L10.9685 21.6104C10.8026 21.6767 10.6149 21.7528 10.4509 21.8018C10.2843 21.8515 10.0099 21.9172 9.69409 21.8516C9.30724 21.7711 8.96809 21.5403 8.74975 21.211C8.57174 20.9423 8.53014 20.6644 8.5144 20.4912C8.49892 20.3207 8.49975 20.1183 8.49975 19.9395V13.3516C8.49975 13.2078 8.49942 13.1354 8.49682 13.083C8.49673 13.0813 8.49593 13.0797 8.49584 13.0781L8.49389 13.0762C8.456 13.0399 8.40135 12.9926 8.29272 12.8985L1.89721 7.35548C1.73392 7.21396 1.51129 7.03124 1.34838 6.79298C1.21925 6.60403 1.12336 6.39421 1.06518 6.17287C0.991843 5.89378 0.999747 5.6067 0.99975 5.39064V4.72072C0.99975 4.45733 0.998638 4.19925 1.01635 3.98244C1.03505 3.75393 1.07931 3.48416 1.21752 3.2129C1.40926 2.83667 1.71531 2.53061 2.09155 2.33888C2.36279 2.20069 2.63259 2.1564 2.86108 2.13771C3.07787 2.12 3.336 2.12111 3.59936 2.12111H20.4001ZM3.59936 4.12111C3.30315 4.12111 3.14069 4.12234 3.02416 4.13185C3.01974 4.13221 3.01545 4.13246 3.01147 4.13283C3.0111 4.13683 3.01086 4.14107 3.01049 4.14552C3.00097 4.26206 2.99975 4.42444 2.99975 4.72072V5.39064C2.99975 5.53442 3.00008 5.60679 3.00268 5.65919C3.00275 5.66054 3.00261 5.66185 3.00268 5.6631C3.00362 5.66401 3.00459 5.66505 3.00561 5.66603C3.04351 5.70231 3.09816 5.74962 3.20678 5.84376L9.60229 11.3867C9.76558 11.5283 9.98823 11.711 10.1511 11.9492C10.2479 12.0909 10.326 12.2442 10.3835 12.4053L10.4343 12.5694L10.4753 12.7793C10.5041 12.9878 10.4998 13.1896 10.4998 13.3516V19.6436L13.4998 18.4434V13.3516C13.4997 13.1355 13.4918 12.8484 13.5652 12.5694C13.6234 12.348 13.7193 12.1382 13.8484 11.9492C14.0113 11.711 14.2339 11.5283 14.3972 11.3867L20.7927 5.84376C20.9014 5.74961 20.956 5.70231 20.9939 5.66603C20.9947 5.66521 20.9951 5.66386 20.9958 5.6631C20.9959 5.66184 20.9968 5.66056 20.9968 5.65919C20.9994 5.60679 20.9998 5.53441 20.9998 5.39064V4.72072C20.9998 4.42444 20.9985 4.26206 20.989 4.14552C20.9886 4.14103 20.9874 4.13685 20.9871 4.13283C20.9834 4.13249 20.9794 4.13218 20.9753 4.13185C20.8588 4.12233 20.6964 4.12111 20.4001 4.12111H3.59936Z"
        fill="currentColor" fill-opacity="0.9" />
</svg>